<?xml version="1.0" standalone="no"?>
<!DOCTYPE svg PUBLIC "-//W3C//DTD SVG 20010904//EN"
 "http://www.w3.org/TR/2001/REC-SVG-20010904/DTD/svg10.dtd">
<svg version="1.0" xmlns="http://www.w3.org/2000/svg"
 width="225.000000pt" height="225.000000pt" viewBox="0 0 225.000000 225.000000"
 preserveAspectRatio="xMidYMid meet">

<g transform="translate(0.000000,225.000000) scale(0.100000,-0.100000)"
fill="#000000" stroke="none">
<path d="M675 1958 c-2 -7 -6 -35 -7 -63 l-3 -50 -120 -5 c-141 -6 -178 -22
-223 -98 l-27 -47 -3 -608 c-2 -393 1 -621 8 -646 15 -57 50 -103 100 -131
l45 -25 680 0 680 0 47 28 c31 18 57 44 75 75 l28 47 0 630 0 630 -27 47 c-45
76 -82 92 -223 98 l-120 5 -3 55 c-4 62 -14 79 -37 60 -10 -8 -15 -30 -15 -66
l0 -54 -405 0 -405 0 0 53 c0 49 -12 77 -32 77 -5 0 -11 -6 -13 -12z m-3 -225
c3 -50 6 -58 23 -58 17 0 20 8 23 58 l3 57 404 0 404 0 3 -57 c3 -50 6 -58 23
-58 17 0 20 8 23 58 l3 57 108 0 c96 0 112 -3 141 -22 67 -46 74 -65 78 -213
l4 -135 -787 0 -787 0 4 135 c4 148 11 167 78 213 29 19 45 22 141 22 l108 0
3 -57z m1236 -793 c2 -234 0 -444 -3 -468 -8 -58 -62 -118 -118 -133 -29 -8
-237 -10 -687 -7 -624 3 -646 4 -678 23 -18 11 -43 36 -55 55 -22 34 -22 42
-25 484 -1 247 0 456 2 463 5 11 143 13 783 11 l778 -3 3 -425z"/>
<path d="M790 1114 l0 -55 53 3 52 3 3 53 3 52 -55 0 -56 0 0 -56z"/>
<path d="M1070 1115 l0 -55 55 0 55 0 0 55 0 55 -55 0 -55 0 0 -55z"/>
<path d="M1352 1118 l3 -53 53 -3 52 -3 0 55 0 56 -56 0 -55 0 3 -52z"/>
<path d="M1640 1115 l0 -55 55 0 55 0 0 55 0 55 -55 0 -55 0 0 -55z"/>
<path d="M1696 884 l-68 -45 -20 21 c-17 18 -23 20 -34 8 -20 -19 2 -98 27
-98 26 0 204 122 204 140 0 29 -40 19 -109 -26z"/>
<path d="M507 903 c-4 -3 -7 -28 -7 -55 l0 -48 55 0 55 0 0 55 0 55 -48 0
c-27 0 -52 -3 -55 -7z"/>
<path d="M790 856 l0 -56 56 0 55 0 -3 53 -3 52 -52 3 -53 3 0 -55z"/>
<path d="M1070 855 l0 -55 55 0 55 0 0 55 0 55 -55 0 -55 0 0 -55z"/>
<path d="M1357 903 c-4 -3 -7 -28 -7 -55 l0 -48 55 0 55 0 0 55 0 55 -48 0
c-27 0 -52 -3 -55 -7z"/>
<path d="M500 585 l0 -55 55 0 55 0 0 55 0 55 -55 0 -55 0 0 -55z"/>
<path d="M790 586 l0 -56 56 0 55 0 -3 53 -3 52 -52 3 -53 3 0 -55z"/>
<path d="M1070 585 l0 -55 55 0 55 0 0 55 0 55 -55 0 -55 0 0 -55z"/>
<path d="M1357 633 c-4 -3 -7 -28 -7 -55 l0 -48 55 0 55 0 0 55 0 55 -48 0
c-27 0 -52 -3 -55 -7z"/>
<path d="M1640 585 l0 -55 55 0 55 0 0 55 0 55 -55 0 -55 0 0 -55z"/>
</g>
</svg>
